/* XPM */
static char *serial[] = {
/* columns rows colors chars-per-pixel */
"48 48 163 2 ",
"   c #3F819B",
".  c #1293B7",
"X  c #1E96BA",
"o  c #3C8BA8",
"O  c #3A8CAA",
"+  c #2B90B2",
"@  c #2F94B6",
"#  c #2997BA",
"$  c #3090B1",
"%  c #3195B7",
"&  c #3E95B5",
"*  c #3296B8",
"=  c #3B99BB",
"-  c #3C98BA",
";  c #399CBF",
":  c #3F9CBE",
">  c #48849D",
",  c #6C8795",
"<  c #458EAB",
"1  c #478FAC",
"2  c #548DA6",
"3  c #5C8CA2",
"4  c #5B8FA6",
"5  c #4291AF",
"6  c #4F91AC",
"7  c #5591AB",
"8  c #5691AA",
"9  c #5B91A9",
"0  c #5E90A8",
"q  c #5D93AB",
"w  c #5893AC",
"e  c #5E94AC",
"r  c #4293B2",
"t  c #4594B2",
"y  c #4695B3",
"u  c #4395B4",
"i  c #4096B6",
"p  c #4797B6",
"a  c #4995B3",
"s  c #4D94B0",
"d  c #449BBB",
"f  c #419BBC",
"g  c #4A99B8",
"h  c #4A9AB9",
"j  c #5095B2",
"k  c #5495B1",
"l  c #5A96B0",
"z  c #5B97B1",
"x  c #539AB7",
"c  c #5598B4",
"v  c #589AB5",
"b  c #589AB6",
"n  c #579CB8",
"m  c #539EBC",
"M  c #5B9EBB",
"N  c #618CA0",
"B  c #618EA3",
"V  c #6590A4",
"C  c #6F90A1",
"Z  c #6993A7",
"A  c #6193A9",
"S  c #6794AA",
"D  c #6395AC",
"F  c #6C95A9",
"G  c #6598AF",
"H  c #6F98AD",
"J  c #7593A2",
"K  c #7793A2",
"L  c #7494A5",
"P  c #7794A4",
"I  c #729BAF",
"U  c #749AAD",
"Y  c #6399B1",
"T  c #6698B0",
"R  c #679AB1",
"E  c #669BB4",
"W  c #609DB7",
"Q  c #6A9AB1",
"!  c #6E9FB7",
"~  c #619EB9",
"^  c #639FBA",
"/  c #729DB2",
"(  c #5CA2BF",
")  c #75A0B5",
"_  c #77A2B6",
"`  c #78A1B6",
"'  c #099DC4",
"]  c #0E9EC4",
"[  c #0F9EC5",
"{  c #119FC6",
"}  c #169EC5",
"|  c #1F9FC5",
" . c #249BC0",
".. c #209CC1",
"X. c #279DC2",
"o. c #2F9CC0",
"O. c #2E9FC4",
"+. c #319EC2",
"@. c #349CC0",
"#. c #379DC0",
"$. c #349EC2",
"%. c #369EC2",
"&. c #399EC1",
"*. c #3D9FC2",
"=. c #00A1C9",
"-. c #01A2CA",
";. c #00A3CB",
":. c #00A4CC",
">. c #01A4CD",
",. c #00A5CE",
"<. c #01A5CE",
"1. c #00A6CF",
"2. c #04A6CF",
"3. c #07A6CF",
"4. c #08A3CB",
"5. c #0CA0C8",
"6. c #0CA1C8",
"7. c #0FA2C9",
"8. c #0FA2CA",
"9. c #09A3CC",
"0. c #0BA5CD",
"q. c #0BA6CF",
"w. c #12A0C7",
"e. c #15A0C6",
"r. c #1CA0C7",
"t. c #10A2CA",
"y. c #12A2CA",
"u. c #16A1C8",
"i. c #10A5CE",
"p. c #12A6CF",
"a. c #14A4CD",
"s. c #15A6CE",
"d. c #1BA1C8",
"f. c #19A2C9",
"g. c #18A3CA",
"h. c #1CA2CA",
"j. c #1AA5CD",
"k. c #1CA5CD",
"l. c #1EA7CF",
"z. c #00A6D0",
"x. c #00A7D0",
"c. c #06A7D1",
"v. c #00A8D1",
"b. c #00A8D2",
"n. c #00A9D2",
"m. c #00A9D3",
"M. c #02A8D2",
"N. c #02A9D2",
"B. c #05A8D1",
"V. c #05A8D2",
"C. c #00AAD4",
"Z. c #0FA8D1",
"A. c #21A0C6",
"S. c #25A0C6",
"D. c #26A0C6",
"F. c #26A1C7",
"G. c #30A0C5",
"H. c #31A0C5",
"J. c #39A2C7",
"K. c #58A6C5",
"L. c #819CAA",
"P. c #809EAE",
"I. c None",
/* pixels */
"I.I.I.I.I.I.I.I.I.I.I.I.I.I.I.I.I.I.I.I.I.I.I.I.I.I.I.I.I.I.I.I.I.I.I.I.I.I.I.I.I.I.I.I.I.I.I.I.",
"I.I.I.I.I.I.I.I.I.I.I.I.I.I.I.I.I.I.I.I.I.I.I.I.I.I.I.I.I.I.I.I.I.I.I.I.I.I.I.I.I.I.I.I.I.I.I.I.",
"I.I.I.I.I.I.I.I.I.I.I.I.I.I.I.I.I.I.I.I.I.I.I.I.I.I.I.I.I.I.I.I.I.I.I.I.I.I.I.I.I.I.I.I.I.I.I.I.",
"I.I.I.I.I.I.I.I.I.I.I.I.I.I.I.I.I.I.I.I.I.I.I.I.I.I.I.I.I.I.I.I.I.I.I.I.I.I.I.I.I.I.I.I.I.I.I.I.",
"I.I.I.I.I.I.I.I.I.I.I.I.I.I.I.I.I.I.I.I.I.I.I.I.I.I.I.I.I.I.I.I.I.I.I.I.I.I.I.I.I.I.I.I.I.I.I.I.",
"I.I.I.I.I.I.I.I.I.I.I.I.I.I.I.I.I.I.I.I.I.I.I.I.I.I.I.I.I.I.I.I.I.I.I.I.I.I.I.I.I.I.I.I.I.I.I.I.",
"I.I.I.I.I.I.I.I.I.I.I.I.I.I.C.I.I.I.I.I.I.I.I.I.I.I.I.I.I.I.I.I.I.I.I.I.C.I.I.I.I.I.I.I.I.I.I.I.",
"I.I.I.I.I.I.I.I.I.I.I.C.I.I.C.I.I.I.I.I.I.I.I.C.I.I.C.I.I.I.I.I.C.I.I.C.I.C.I.I.I.I.I.I.I.I.I.I.",
"I.I.I.I.I.I.I.I.C.I.I.C.I.I.C.I.I.C.I.I.C.I.I.C.I.I.C.I.I.I.I.I.C.I.I.C.I.I.I.I.I.I.I.I.I.I.I.I.",
"I.I.I.I.I.I.I.I.C.I.I.C.I.I.C.I.I.C.I.I.C.I.I.C.I.I.C.I.I.I.I.I.C.I.I.C.I.I.I.I.I.I.I.I.I.I.I.I.",
"I.I.I.I.I.I.I.I.I.I.I.C.I.I.C.I.I.C.I.I.I.I.I.C.I.I.C.I.I.I.I.I.C.I.I.C.I.C.I.I.I.I.I.I.I.I.I.I.",
"I.I.I.I.I.I.I.I.I.I.C.I.I.I.C.C.I.I.I.I.I.I.C.C.C.I.I.C.I.I.I.C.C.I.I.I.C.I.I.I.I.I.I.I.I.I.I.I.",
"I.I.I.I.I.I.I.I.I.I.I.I.I.I.I.I.I.I.I.I.I.I.I.I.I.I.I.I.I.I.I.I.I.I.I.I.I.I.I.I.I.I.I.I.I.I.I.I.",
"I.I.I.I.I.I.I.I.I.I.I.I.I.I.I.I.I.I.I.I.I.I.I.I.I.I.I.I.I.I.I.I.I.I.I.I.I.I.I.I.I.I.I.I.I.I.I.I.",
"I.I.I.I.I.5 U F F F F F F F F F F F F F F F F F F F F F F F F F F F F F F F F F F H e I.I.I.I.I.",
"I.I.I.x a.C.C.C.C.C.C.C.C.C.C.C.C.C.C.C.C.C.C.C.C.C.C.C.C.C.C.C.C.C.C.C.C.C.C.C.C.C.C.h.< I.I.I.",
"I.I.o.C.C.C.C.C.C.C.C.C.C.C.C.C.C.C.C.C.C.C.C.C.C.C.C.C.C.C.C.C.C.C.C.C.C.C.C.C.C.b.C.C.C.y I.I.",
"I.F.C.C.C.y.j.C.C.C.C.C.C.C.C.C.C.C.C.C.C.C.C.C.C.C.C.C.C.C.C.C.C.C.C.C.C.C.C.C.C.g.p.C.C.C.v I.",
"K b.C.C.g I.I.I.I.I.I.I.I.I.I.I.I.I.I.I.I.I.I.I.I.I.I.I.I.I.I.I.I.I.I.I.I.I.I.I.I.I.I.G.C.C.t.I.",
"s C.C.F.I.I.I.I.I.I.I.I.I.I.I.I.I.I.I.I.I.I.I.I.I.I.I.I.I.I.I.I.I.I.I.I.I.I.I.I.I.I.I.I.b.C.C.B ",
"+.C.C.( I.I.I.I.I.I.I.I.I.I.I.I.I.I.I.I.I.I.I.I.I.I.I.I.I.I.I.I.I.I.I.I.I.I.I.I.I.I.I.I.&.C.C.d ",
"G.C.C.M I.I.I.I.I.I.I.I.I.I.I.I.I.I.I.I.I.I.I.I.I.I.I.I.I.I.I.I.I.I.I.I.I.I.I.I.I.I.I.I.&.C.C.f ",
"v C.C.J.I.I.I.I.I.I.+ b.g.I.I.I.D C.7.I.I.I.g x.x.I.I.I.4 b.<.L I.I.` x.<.O I.I.I.I.I.I.<.C.C.E ",
"3 C.C.9.I.I.I.I.I.I.* C.C.V I.I.| C.C.. I.I.c C.C.Z I.I.' C.C.k.I.I.k C.b._ I.I.I.I.I.N C.C.B.I.",
"I.b.C.C., I.I.I.I.I.A <.X I.I.I.G ;.G.I.I.I.8 ;. .I.I.I._ ;.[ I.I.I.I.[ } I.I.I.I.I.I.8 C.C.# I.",
"I.e.C.C.w I.I.I.I.I.I.I.I.I.I.I.I.I.I.I.I.I.I.I.I.I.I.I.I.I.I.I.I.I.I.I.I.I.I.I.I.I.I.@ C.C.K.I.",
"I.M b.C.#.I.I.I.I.I.I.I.I.I.I.I.I.I.I.I.I.I.I.I.I.I.I.I.I.I.I.I.I.I.I.I.I.I.I.I.I.I.I.0.C.C.~ I.",
"I.0 b.C.B.I.I.I.I.I.I.I.I.I.I.I.I.I.I.I.I.I.I.I.I.I.I.I.I.I.I.I.I.I.I.I.I.I.I.I.I.I./ C.C.b.I.I.",
"I.I.B.C.b.I.I.I.I.I.I.I.I.> <.A.I.I.I.! b.6.I.I.I.z <.a.P.I.I.S b.7.I.I.I.I.I.I.I.I.#.C.C...I.I.",
"I.I.X.C.C.2 I.I.I.I.I.I.I.J.C.C.I I.I.* C.C.t I.I.= C.C.Y I.I.~ C.b.m I.I.I.I.I.I.I.r C.C.j I.I.",
"I.I.: C.b.a I.I.I.I.I.I.I.Q 2.{ I.I.I.> 2.h.I.I.I.R c.w.I.I.I.o 4.<.P.I.I.I.I.I.I.I.X.C.C.y I.I.",
"I.I.^ C.C.A.I.I.I.I.I.I.I.I.I.I.I.I.I.I.I.I.I.I.I.I.I.I.I.I.I.I.I.I.I.I.I.I.I.I.I.I.C.C.b.I.I.I.",
"I.I.I.b.C.b.I.I.I.I.I.I.I.I.I.I.I.I.I.I.I.I.I.I.I.I.I.I.I.I.I.I.I.I.I.I.I.I.I.I.I.0 C.C.g.I.I.I.",
"I.I.I.u.C.C.7 I.I.I.I.I.I.I.I.I.I.I.I.I.I.I.I.I.I.I.I.I.I.I.I.I.I.I.I.I.I.I.I.I.I.H.C.C.i I.I.I.",
"I.I.I.p C.C.b.& I.I.I.I.I.I.I.I.I.I.I.I.I.I.I.I.I.I.I.I.I.I.I.I.I.I.I.I.I.I.I.I.- C.C.C.0 I.I.I.",
"I.I.I.I.l.C.C.C.Z.C.C.C.C.C.C.C.C.C.C.C.C.C.C.C.C.C.C.C.C.C.C.C.C.C.C.C.C.C.Z.c.C.C.C.; I.I.I.I.",
"I.I.I.I.C i.C.C.C.C.C.C.C.C.C.C.C.C.C.C.C.C.C.C.C.C.C.C.C.C.C.C.C.C.C.C.C.C.C.C.C.b.G.I.I.I.I.I.",
"I.I.I.I.I.I.$ b.C.C.C.C.C.C.C.C.C.C.C.C.C.C.C.C.C.C.C.C.C.C.C.C.C.C.C.C.C.C.C.C.y.5 I.I.I.I.I.I.",
"I.I.I.I.I.I.I.I.R K J J J J J J K K K K K K K K K K K K K K K K K K K K K K L z I.I.I.I.I.I.I.I.",
"I.I.I.I.I.I.I.I.I.I.I.I.I.I.I.I.I.I.I.I.I.I.I.I.I.I.I.I.I.I.I.I.I.I.I.I.I.I.I.I.I.I.I.I.I.I.I.I.",
"I.I.I.I.I.I.I.I.I.I.I.I.I.I.I.I.I.I.I.I.I.I.I.I.I.I.I.I.I.I.I.I.I.I.I.I.I.I.I.I.I.I.I.I.I.I.I.I.",
"I.I.I.I.I.I.I.I.I.I.I.I.I.I.I.I.I.I.I.I.I.I.I.I.I.I.I.I.I.I.I.I.I.I.I.I.I.I.I.I.I.I.I.I.I.I.I.I.",
"I.I.I.I.I.I.I.I.I.I.I.I.I.I.I.I.I.I.I.I.I.I.I.I.I.I.I.I.I.I.I.I.I.I.I.I.I.I.I.I.I.I.I.I.I.I.I.I.",
"I.I.I.I.I.I.I.I.I.I.I.I.I.I.I.I.I.I.I.I.I.I.I.I.I.I.I.I.I.I.I.I.I.I.I.I.I.I.I.I.I.I.I.I.I.I.I.I.",
"I.I.I.I.I.I.I.I.I.I.I.I.I.I.I.I.I.I.I.I.I.I.I.I.I.I.I.I.I.I.I.I.I.I.I.I.I.I.I.I.I.I.I.I.I.I.I.I.",
"I.I.I.I.I.I.I.I.I.I.I.I.I.I.I.I.I.I.I.I.I.I.I.I.I.I.I.I.I.I.I.I.I.I.I.I.I.I.I.I.I.I.I.I.I.I.I.I.",
"I.I.I.I.I.I.I.I.I.I.I.I.I.I.I.I.I.I.I.I.I.I.I.I.I.I.I.I.I.I.I.I.I.I.I.I.I.I.I.I.I.I.I.I.I.I.I.I.",
"I.I.I.I.I.I.I.I.I.I.I.I.I.I.I.I.I.I.I.I.I.I.I.I.I.I.I.I.I.I.I.I.I.I.I.I.I.I.I.I.I.I.I.I.I.I.I.I."
};
