/* XPM */
static char * udp_xpm[] = {
"48 48 108 2",
"  	c None",
". 	c #00AAD4",
"+ 	c #11ABD4",
"@ 	c #12ABD4",
"# 	c #16ABD4",
"$ 	c #B7D8EA",
"% 	c #F0F6FA",
"& 	c #9ECCE4",
"* 	c #CBE2EF",
"= 	c #81C1DE",
"- 	c #1CABD5",
"; 	c #E9F2F8",
"> 	c #EDF4F9",
", 	c #E4EFF6",
"' 	c #CDE3EF",
") 	c #8FC6E1",
"! 	c #0DAAD4",
"~ 	c #D8E9F3",
"{ 	c #8EC6E1",
"] 	c #DEECF4",
"^ 	c #FFFFFF",
"/ 	c #7EC0DE",
"( 	c #EFF6FA",
"_ 	c #FEFEFF",
": 	c #51B3D8",
"< 	c #66B8DA",
"[ 	c #CCE2EF",
"} 	c #9BCBE3",
"| 	c #F6F9FC",
"1 	c #FBFDFE",
"2 	c #38AED6",
"3 	c #FDFEFE",
"4 	c #DAEAF3",
"5 	c #92C7E1",
"6 	c #A1CEE5",
"7 	c #D4E7F1",
"8 	c #A3CEE5",
"9 	c #CEE4F0",
"0 	c #5DB6D9",
"a 	c #DFEDF5",
"b 	c #10ABD4",
"c 	c #68B9DB",
"d 	c #E7F1F7",
"e 	c #8DC5E1",
"f 	c #D5E7F2",
"g 	c #C0DCEC",
"h 	c #ADD3E7",
"i 	c #CAE1EF",
"j 	c #DDECF4",
"k 	c #ABD2E7",
"l 	c #E6F1F7",
"m 	c #B6D7E9",
"n 	c #B6D8EA",
"o 	c #8BC5E0",
"p 	c #82C1DF",
"q 	c #B9D9EA",
"r 	c #C8E0EE",
"s 	c #AAD2E7",
"t 	c #F5F9FC",
"u 	c #3DAFD6",
"v 	c #89C4E0",
"w 	c #D0E4F0",
"x 	c #DCEBF4",
"y 	c #F8FBFD",
"z 	c #7DBFDE",
"A 	c #EEF5FA",
"B 	c #65B8DA",
"C 	c #EBF3F8",
"D 	c #F1F7FA",
"E 	c #40B0D6",
"F 	c #62B7DA",
"G 	c #9ACBE3",
"H 	c #5AB5D9",
"I 	c #F3F8FB",
"J 	c #83C2DF",
"K 	c #DDEBF4",
"L 	c #A3CFE5",
"M 	c #77BEDD",
"N 	c #F4F9FB",
"O 	c #6EBBDB",
"P 	c #BEDBEC",
"Q 	c #35AED6",
"R 	c #94C8E2",
"S 	c #EEF5F9",
"T 	c #D1E5F0",
"U 	c #AAD2E6",
"V 	c #D9E9F3",
"W 	c #45B1D7",
"X 	c #F9FBFD",
"Y 	c #3BAFD6",
"Z 	c #E2EEF6",
"` 	c #E8F2F7",
" .	c #A7D0E6",
"..	c #14ABD4",
"+.	c #2EADD5",
"@.	c #90C7E1",
"#.	c #B2D5E8",
"$.	c #76BDDD",
"%.	c #22ACD5",
"&.	c #91C7E1",
"*.	c #4DB2D8",
"=.	c #15ABD4",
"-.	c #1FABD5",
";.	c #06AAD4",
">.	c #0FAAD4",
",.	c #19ABD4",
"'.	c #21ACD5",
").	c #0EAAD4",
"                                                                                                ",
"                                                                                                ",
"                                                                                                ",
"                                                                                                ",
"                                                                                                ",
"                                                                                                ",
"                                                                                                ",
"                                                                                                ",
"                                                                                                ",
"                                                                                                ",
"                                                                                                ",
"                                                  . . . . . . .                                 ",
"                            + . . . . . . + . . . . . . . . . . . .                             ",
"                        . . . . . . . . . . . . . . . . . . . . . . @                           ",
"          . . . .     . . . . . . . . . . . . . . . . . . . . . . . . #                         ",
"        . . . . . . . . . . . . . . . . . . . . . . . . . . . . . . . . . . . .                 ",
"      . . . . . . . . . . . . . . . . . . . . . . . . . . . . . . . . . . . . . .               ",
"      . . . . . . . . . . . . . . . . . . . . . . . . . . . . . . . . . . . . . . .             ",
"      . . $ % % & . . . * % % = . - ; % % % > , ' ) ! . . . - ; % % % % > ~ { . . .             ",
"      . . ] ^ ^ / . . ! ( ^ _ : . < _ ^ ^ ^ ^ ^ ^ ^ [ - . . < _ ^ ^ ^ ^ ^ ^ _ } . .             ",
"      . - | ^ 1 2 . . : 3 ^ ( # . } ^ ^ 4 5 6 7 ^ ^ ^ 8 . . } ^ ^ 9 : 0 * ^ ^ a . .             ",
"      b c _ ^ d ! . . e ^ ^ f . . g ^ ^ h . . . i ^ ^ j . . g ^ ^ k . . = ^ ^ l . . . . .       ",
"    . . } ^ ^ [ . . . m ^ ^ n . . j ^ ^ = . . . o ^ ^ > ! . j ^ ^ p . . q ^ ^ r . . . . . .     ",
"  - . . g ^ ^ s . . . f ^ ^ { . - t ^ 1 u . . . v ^ ^ d . - t ^ ^ w i x _ ^ y c . . . . . . .   ",
"  . . . j ^ ^ z . . ! A ^ 3 : . B _ ^ ; ! . . . n ^ ^ * . B _ ^ ^ ^ ^ ^ ^ C = . . . . . . . . . ",
". . . # D ^ _ E . . F _ ^ C ! . G ^ ^ 9 . . . H I ^ _ J . G ^ ^ K L L } M - . . . . . . . . . . ",
". . . # N ^ _ O . - * ^ ^ q . . P ^ ^ h . Q R S ^ ^ T ! . P ^ ^ U . . . . . . . . . . . . . . . ",
". . . . ~ ^ ^ t V C ^ ^ A W . . x ^ ^ t D X ^ ^ ^ 4 Y . . x ^ ^ / . . . . . . . . . . . . . . # ",
". . . . c > ^ ^ ^ ^ ^ Z c . . - N ^ ^ ^ ^ ^ 3 `  .- . . - N ^ 1 Y . . . . . . . . . . . . . . . ",
"... . . . +.@.#.m  .$.# . . . %.@.&.&.@.v M *.! . . . . %.@.&.v ! . . . . . . . . . . . . . .   ",
". . . . . . . . . . . . . . . . . . . . . . . . . . . . . . . . . . . . . . . . . . . . . . .   ",
"  =.. . . . . . . . . . . . . . . . . . . . . . . . . . . . . . . . . . . . . . . . . . . .     ",
"    . . . . . . . . . . . . . . . . . . . . . . . . . . . . . . . . . . . . . . . . . . .       ",
"      . . . . . . . . . . . . . . . . . . . . . . . . . . . . . . . . . . . . . . .             ",
"        -.. . . . . . . . . . . . ;.>.. . . . . . . . . . . . . . . . . . . . . .               ",
"                    . . . . . . . ,.    . . . . . '.      . . . . . . .   . . .                 ",
"                      . . . )..                               . . .                             ",
"                                                                                                ",
"                                                                                                ",
"                                                                                                ",
"                                                                                                ",
"                                                                                                ",
"                                                                                                ",
"                                                                                                ",
"                                                                                                ",
"                                                                                                ",
"                                                                                                ",
"                                                                                                "};
