/* XPM */
static char *xmodshell[] = {
/* columns rows colors chars-per-pixel */
"48 48 189 2 ",
"   c black",
".  c #011623",
"X  c #997400",
"o  c #228F2B",
"O  c #308B25",
"+  c #26982B",
"@  c #359F2D",
"#  c #399F2C",
"$  c #3B9F2C",
"%  c #0BA237",
"&  c #0AA337",
"*  c #0EA337",
"=  c #03A239",
"-  c #04A239",
";  c #09A338",
":  c #13A135",
">  c #14A235",
",  c #1CA033",
"<  c #1FA533",
"1  c #18A134",
"2  c #1AA134",
"3  c #2BA02F",
"4  c #2CA02F",
"5  c #2EA02F",
"6  c #2CA72F",
"7  c #30A02E",
"8  c #30A72E",
"9  c #36A42C",
"0  c #21A032",
"q  c #27A031",
"w  c #23A632",
"e  c #25A631",
"r  c #27A631",
"t  c #28A030",
"y  c #29A030",
"u  c #2AA030",
"i  c #28A631",
"p  c #2CA730",
"a  c #6C8817",
"s  c #779B1E",
"d  c #729C1E",
"f  c #759C1E",
"g  c #7D9B1C",
"h  c #7E9C1C",
"j  c #76B01F",
"k  c #4E9E27",
"l  c #4F9E27",
"z  c #409E2B",
"x  c #489F29",
"c  c #579D25",
"v  c #549D26",
"b  c #5E9D24",
"n  c #558638",
"m  c #649D22",
"M  c #669C22",
"N  c #6E9C20",
"B  c #739B25",
"V  c #40A92B",
"C  c #43AA2A",
"Z  c #44A92A",
"A  c #57A025",
"S  c #57AC26",
"D  c #5EAD24",
"F  c #63A222",
"G  c #6AAE22",
"H  c #839B1B",
"J  c #869B1A",
"K  c #8F9A18",
"L  c #919A17",
"P  c #9A9915",
"I  c #989A16",
"U  c #9D9915",
"Y  c #9E9A14",
"T  c #9F9B14",
"R  c #B48800",
"E  c #BF9000",
"W  c #BF9100",
"Q  c #BC980D",
"!  c #A79912",
"~  c #AC9911",
"^  c #B19910",
"/  c #86B21B",
"(  c #8CB219",
")  c #8FB319",
"_  c #98B417",
"`  c #99B417",
"'  c #9DB516",
"]  c #94B318",
"[  c #B9B80F",
"{  c #BAB80F",
"}  c #AFA511",
"|  c #AAAB12",
" . c #A1B515",
".. c #AFB712",
"X. c #B8B710",
"o. c #D78300",
"O. c #DA8500",
"+. c #C19300",
"@. c #C49500",
"#. c #C3970B",
"$. c #CC9709",
"%. c #CD9709",
"&. c #C5980B",
"*. c #C2980C",
"=. c #D49707",
"-. c #D79607",
";. c #D89606",
":. c #DA9606",
">. c #DC9606",
",. c #D09708",
"<. c #E08B00",
"1. c #E39504",
"2. c #E09605",
"3. c #E39604",
"4. c #E59604",
"5. c #EE9100",
"6. c #EB9602",
"7. c #EE9501",
"8. c #F19501",
"9. c #F39500",
"0. c #F09601",
"q. c #F49500",
"w. c #F49600",
"e. c #F59700",
"r. c #F59900",
"t. c #F59A00",
"y. c #F69B00",
"u. c #F69C00",
"i. c #F59E00",
"p. c #C2B90D",
"a. c #CBBA0B",
"s. c #DDB107",
"d. c #DBBC07",
"f. c #DCBC07",
"g. c #DEBC07",
"h. c #D1BB0A",
"j. c #D5BC09",
"k. c #D9BC08",
"l. c #F6A100",
"z. c #F6A200",
"x. c #F7A400",
"c. c #F7A600",
"v. c #F7A700",
"b. c #F8A500",
"n. c #F8A700",
"m. c #F8A800",
"M. c #F9A900",
"N. c #F8AA00",
"B. c #F8AB00",
"V. c #E3BD06",
"C. c #E4BD05",
"Z. c #E6BD05",
"A. c #E7BD05",
"S. c #EABB04",
"D. c #EBBE04",
"F. c #F9B000",
"G. c #FAB300",
"H. c #FAB400",
"J. c #FAB500",
"K. c #FBB600",
"L. c #FBB700",
"P. c #F2BE02",
"I. c #FBB800",
"U. c #FAB900",
"Y. c #FABB00",
"T. c #FBBC00",
"R. c #FBBD00",
"E. c #FBBE00",
"W. c #FABF00",
"Q. c #FBBF00",
"!. c #FCBE00",
"~. c #FCBF00",
"^. c #FFBF00",
"/. c #F8C001",
"(. c #F9C001",
"). c #FBC000",
"_. c #FBC100",
"`. c #FCC000",
"'. c #FDC000",
"]. c #FCC100",
"[. c #1091D0",
"{. c #1191D0",
"}. c #1292D0",
"|. c #00AAD4",
" X c #E8E8E7",
".X c #F1F7FA",
"XX c #FDFDFD",
"oX c white",
"OX c None",
/* pixels */
"OXOXOXOXOXOXOXOXOXOXOXOXOXOXOXOXOXOXOXOXOXOXOXOXOXOXOXOXOXOXOXOXOXOXOXOXOXOXOXOXOXOXOXOXOXOXOXOX",
"OXOXOXOXOXOXOXOXOXOXOXOXOXOXOXOXOXOXOXOXOXOXOXOXOXOXOXOXOXOXOXOXOXOXOXOXOXOXOXOXOXOXOXOXOXOXOXOX",
"OXOXOXOXOXOXOXOXOXOXOXOXOXOXOXOXOXOXOXOXOXOXOXOXOXOXOXOXOXOXOXOXOXOXOXOXOXOXOXOXOXOXOXOXOXOXOXOX",
"OXOXOXOXOXOXOXOXOXOXOXOXOXOXOXOXOXOXOXOXOXOXOXOXOXOXOXOXOXOXOXOXOXOXOXOXOXOXOXOXOXOXOXOXOXOXOXOX",
"OXOXOXOXOXOXOXOXOXOXOXOXOXOXOXOXOXOXOXOXOXOXOXOXOXOXOXOXOXOXOXOXOXOXOXOXOXOXOXOXOXOXOXOXOXOXOXOX",
"OXOXOXOXOXOXOXOXOXOXOXOXOXOXOXOX`.`.OXOXOXOXOXOXOXOXOXOXOXOXOXOXOXOXOXOXOXOXOXOXOXOXOXOXOXOXOXOX",
"OXOXOXOXOXOXOXOXOXOXOXOXOXOX`.`.`.`.`.`.OXOXOXOXOXOXOXOXOXOXOXOXOXOXOXOXOXOXOXOXOXOXOXOXOXOXOXOX",
"OXOXOXOXOXOXOXOXOXOXOXOXOX`.`.`.`.`.`.`.`.OXOXOXOXOXOXOXOXOXOXOXOXOXOXOXOXOXOXOXOXOXOXOXOXOXOXOX",
"OXOXOXOXOXOXOXOXOXOXOXOX`.`.`.`.`.`.`.`.`.`.OXOXOXOXOXOXOXOXOXOXOXOXOXOXOXOXOXOXOXOXOXOXOXOXOXOX",
"OXOXOXOXOXOXOXOXOXOXOXOX`.`.`.`.`.`.`.`.`.`.OXOXOXOXOXOXOXOXOXOXOXOXOXOXOXOXOXOXOXOXOXOXOXOXOXOX",
"OXOXOXOXOXOXOXOXOXOXOXOX`.`.Q._.a.k.`.`.`.`.OXOXOXOXOXOX`.`.`.`.`.`.OXOXOXOXOXOXOXOXOXOXOXOXOXOX",
"OXOXOXOXOXOXOXOXOXOXOXOX`.~._._.6 % / ~.~.~.OXOXOXOXOX_.`.`.`.`.`.`.`.OXOXOXOXOXOXOXOXOXOXOXOXOX",
"OXOXOXOXOXOXOXOXOXOXOXOX`.`.`.[ V 8 ] `.~.N.q.q.q.q.Y.`.`.`.`.`.`.`.`._.OXOXOXOXOXOXOXOXOXOXOXOX",
"OXOXOXOXOXOXOXOXOXOXOXOXOXQ.`.D.g.e Z.`.Y.q.q.q.q.q.Q.`.`.`.`.`.~.~.`.`.OXOXOXOXOXOXOXOXOXOXOXOX",
"OXOXOXOXOXOXOXOXOXOXOXOXq.u.L._.`.G  .L.r.q.q.q.q.<.@.W W W W W W W E +.OXOXOXOXOXOXOXOXOXOXOXOX",
"OXOXOXOXOXOXQ.OXOXOXOXq.q.q.q.u.N.} c 9.q.q.q.q.|.|.|.|.|.|.|.|.|.|.|.|.|.|.|.|.|.|.|.|.|.|.OXOX",
"OXOXOX`.`.`.`.`.~.Y.q.q.q.q.q.q.q.6., 9.q.q.q.5.|.oX|.|.|.|.|.|.|.|.|.|.|.|.|.|.|.|..X|.oX|.OXOX",
"OXOX`.`.`.`.`.`.~.`.c.q.q.q.q.q.q.q.x Q q.q.q.O. X X X X X X X X X X X X X X X X X X X X X XOXOX",
"OXOX`.`.`.`.`.`.~.`.Q.q.q.q.q.q.q.9.K f q.q.9.o. X X X X X X X X X X X X X X X X X X X X X XOXOX",
"OX`.`.`.`.`._.Z.j X.~.z.q.q.q.q.q.9.,.@ q.q.q.o. X                                         XOXOX",
"OX`.`.`.`.`.f.* i p.Q.c.9.9.q.q.q.q.q.u ,.Q 1.O. X  ~.~.~.~.~.~.~.~.~.~.~.~.~.~.~.~.~.~.   XOXOX",
"OX`.`.`.`.`.`.C S C < F ~ 6.q.q.9.9.H k 5 d c a  X                                         XOXOX",
"OXOX`.`.`.`.`.j._ `.D.U c 2 k I >.f N 0 : #.% O  X  ~.~.  ~.  ~.  ~.  ~.  ~.  ~.  ~.  ~.   XOXOX",
"OXOX`.`.`.`.`.`.`.`.b.q.q.7.^ M 0 u 2 1.&.1.l O  X  .                                      XOXOX",
"OXOXOX`.`.`.`.`.Q.N.q.q.q.q.q.q.*.3 $ -.q.q.! O  X  ~.~.  ~.  ~.  ~.  ~.  ~.  ~.  ~.  ~.   XOXOX",
"OXOXOXOXOXOX`.N.u.q.q.q.q.q.q.q.:.m b g 9.$.h O  X                                         XOXOX",
"OXOXOXOXOXOXOXq.q.q.q.q.q.q.q.q.9.~ : 5 K - z O  X  ~.~.  ~.  ~.  ~.  ~.  ~.  ~.  ~.  `.   XOXOX",
"OXOXOXOXOXOXOX9.q.q.q.q.q.q.q.q.:.u I $ 7 5 I n  X                                         XOX{.",
"OXOXOXOXOXOXOXOXq.q.q.q.q.9.9.:.q U q.>.$.J B n  X  ~.~.~.~.~.                             XOX{.",
"OXOXOXOXOXOXOXOXb.F.L.B.z.9.:.q U 9.q.q.q.:.q.n  X                                         XOX{.",
"OXOXOXOXOXOXOX`.Q.`.`.`.`.s.q U q.q.q.q.q.q.:.n  X                                         XOXOX",
"OXOXOXOXOXOX`.`._.Q._.' d.i | q.q.q.q.q.q.q.:.n  X X X X X X X X X X X X X X X X X X X X X XOXOX",
"OXOXOXOXOXOX`.`.`.`.k.i i .._.r.q.q.q.q.q.q.:.o  X                                         XOXOX",
"OXOXOXOXOX_.`.`.`.`.Z.= p ] _.v.q.q.q.q.q.q.B.7  X                                         XOXOX",
"OXOXOXOXOX`.`.`.`.`._.a.{ Z.`.N.q.q.q.q.q.L.Q.)  X X X X X X X X X X X X X X X X X X X X X XOXOX",
"OXOXOXOXOXOX`.`.`.`._.Q.`.`.~.c.q.q.q.q.c.`.h.) e + +.R R X                           OXOXOXOXOX",
"OXOXOXOXOXOX`.`.`.`.`.`.`.`.`.OXq.q.q.q.L.`.P.D ; _ `.`.`.`.OXOXOXOXOXOXOXOXOXOXOXOXOXOXOXOXOXOX",
"OXOXOXOXOXOXOX`.`.`.`.`.`.`.OXOXOXOXOXOX~.`.`.`.V._.`.`.`.`.OXOXOXOXOXOXOXOXOXOXOXOXOXOXOXOXOXOX",
"OXOXOXOXOXOXOXOX`.`.`.`.`.OXOXOXOXOXOXOX`.`.`.`._.`.`.`.`.~.OXOXOXOXOXOXOXOXOXOXOXOXOXOXOXOXOXOX",
"OXOXOXOXOXOXOXOXOXOXOXOXOXOXOXOXOXOXOXOX`.`.`.`.~.`.`.`.`._.OXOXOXOXOXOXOXOXOXOXOXOXOXOXOXOXOXOX",
"OXOXOXOXOXOXOXOXOXOXOXOXOXOXOXOXOXOXOXOXOX`.`.`.`.`.`.`.`.OXOXOXOXOXOXOXOXOXOXOXOXOXOXOXOXOXOXOX",
"OXOXOXOXOXOXOXOXOXOXOXOXOXOXOXOXOXOXOXOXOXOX`.`.`.`.`.`.`.OXOXOXOXOXOXOXOXOXOXOXOXOXOXOXOXOXOXOX",
"OXOXOXOXOXOXOXOXOXOXOXOXOXOXOXOXOXOXOXOXOXOXOX~.`.`.`.OXOXOXOXOXOXOXOXOXOXOXOXOXOXOXOXOXOXOXOXOX",
"OXOXOXOXOXOXOXOXOXOXOXOXOXOXOXOXOXOXOXOXOXOXOXOXOXOXOXOXOXOXOXOXOXOXOXOXOXOXOXOXOXOXOXOXOXOXOXOX",
"OXOXOXOXOXOXOXOXOXOXOXOXOXOXOXOXOXOXOXOXOXOXOXOXOXOXOXOXOXOXOXOXOXOXOXOXOXOXOXOXOXOXOXOXOXOXOXOX",
"OXOXOXOXOXOXOXOXOXOXOXOXOXOXOXOXOXOXOXOXOXOXOXOXOXOXOXOXOXOXOXOXOXOXOXOXOXOXOXOXOXOXOXOXOXOXOXOX",
"OXOXOXOXOXOXOXOXOXOXOXOXOXOXOXOXOXOXOXOXOXOXOXOXOXOXOXOXOXOXOXOXOXOXOXOXOXOXOXOXOXOXOXOXOXOXOXOX",
"OXOXOXOXOXOXOXOXOXOXOXOXOXOXOXOXOXOXOXOXOXOXOXOXOXOXOXOXOXOXOXOXOXOXOXOXOXOXOXOXOXOXOXOXOXOXOXOX"
};
