/* XPM */
static char * modshell_xpm[] = {
"64 64 290 2",
"  	c None",
". 	c #FBBF00",
"+ 	c #FCC000",
"@ 	c #FDC000",
"# 	c #FBC100",
"$ 	c #FBC000",
"% 	c #FCC100",
"& 	c #C4B90D",
"* 	c #BFB90E",
"= 	c #F9C001",
"- 	c #2FA82F",
"; 	c #03A239",
"> 	c #4EAB28",
", 	c #D8BC08",
"' 	c #FBBD00",
") 	c #9AB516",
"! 	c #0AA337",
"~ 	c #43AA2A",
"{ 	c #59AC25",
"] 	c #F8AC00",
"^ 	c #F49500",
"/ 	c #F39500",
"( 	c #73B020",
"_ 	c #8BB21A",
": 	c #14A435",
"< 	c #A5B614",
"[ 	c #CEBA0B",
"} 	c #FCBF00",
"| 	c #F59A00",
"1 	c #F59E00",
"2 	c #FDC100",
"3 	c #D1BB0A",
"4 	c #F4BF02",
"5 	c #58AD26",
"6 	c #5EAD24",
"7 	c #F8A800",
"8 	c #F8AB00",
"9 	c #F7A500",
"0 	c #A0B515",
"a 	c #17A435",
"b 	c #FABF00",
"c 	c #F8A900",
"d 	c #F9B100",
"e 	c #F69B00",
"f 	c #F9AF00",
"g 	c #E7BD05",
"h 	c #05A239",
"i 	c #C4AE0C",
"j 	c #F59D00",
"k 	c #F9B200",
"l 	c #F6BF01",
"m 	c #E3BD06",
"n 	c #F49400",
"o 	c #F59900",
"p 	c #36A02D",
"q 	c #7C9B1D",
"r 	c #F8AD00",
"s 	c #F5BF02",
"t 	c #4FAB28",
"u 	c #04A239",
"v 	c #46AA2A",
"w 	c #7C9B1C",
"x 	c #359F2D",
"y 	c #F6A000",
"z 	c #61AD24",
"A 	c #31A82E",
"B 	c #FBB900",
"C 	c #F59700",
"D 	c #C3980C",
"E 	c #DE9705",
"F 	c #FBB700",
"G 	c #57AC26",
"H 	c #13A435",
"I 	c #7DB01D",
"J 	c #2DA72F",
"K 	c #1CA033",
"L 	c #9A9915",
"M 	c #EB9B02",
"N 	c #48AA29",
"O 	c #1BA534",
"P 	c #CFBB0B",
"Q 	c #BCB80F",
"R 	c #A6B614",
"S 	c #5F9D23",
"T 	c #559E26",
"U 	c #E39504",
"V 	c #389F2C",
"W 	c #25A231",
"X 	c #D9B708",
"Y 	c #92B418",
"Z 	c #EBBE04",
"` 	c #F7A600",
" .	c #A59913",
"..	c #11A136",
"+.	c #EF9501",
"@.	c #DD9605",
"#.	c #2F9F2E",
"$.	c #2BA030",
"%.	c #DA9606",
"&.	c #F49600",
"*.	c #F8A700",
"=.	c #FAB500",
"-.	c #FBBC00",
";.	c #FBB800",
">.	c #A9B613",
",.	c #24A632",
"'.	c #1CA533",
").	c #9BB416",
"!.	c #F8C001",
"~.	c #E79603",
"{.	c #08A238",
"].	c #BA980E",
"^.	c #DF9605",
"/.	c #D49707",
"(.	c #25A031",
"_.	c #E29604",
":.	c #80B11D",
"<.	c #05A339",
"[.	c #34A82E",
"}.	c #CBBA0B",
"|.	c #EB9602",
"1.	c #409F2A",
"2.	c #759C1E",
"3.	c #649D22",
"4.	c #C8980B",
"5.	c #A49913",
"6.	c #C9970A",
"7.	c #1BA133",
"8.	c #479E29",
"9.	c #EA9502",
"0.	c #EEBE03",
"a.	c #16A435",
"b.	c #6FAF20",
"c.	c #79B01E",
"d.	c #2DA730",
"e.	c #26A331",
"f.	c #6F9D20",
"g.	c #B9980E",
"h.	c #F19501",
"i.	c #F09601",
"j.	c #DB9706",
"k.	c #3D9F2B",
"l.	c #599D25",
"m.	c #1FA133",
"n.	c #919B18",
"o.	c #18A134",
"p.	c #BD980D",
"q.	c #13A135",
"r.	c #569D25",
"s.	c #EE9501",
"t.	c #A8B613",
"u.	c #50AB27",
"v.	c #D8BB08",
"w.	c #889E1A",
"x.	c #06A238",
"y.	c #15A135",
"z.	c #5B9D24",
"A.	c #E99603",
"B.	c #9D9915",
"C.	c #449E2A",
"D.	c #559E25",
"E.	c #BC980D",
"F.	c #0AA237",
"G.	c #0EA137",
"H.	c #669C22",
"I.	c #F29500",
"J.	c #F9AE00",
"K.	c #9B9A15",
"L.	c #519D26",
"M.	c #909A18",
"N.	c #1DA133",
"O.	c #739C1F",
"P.	c #BE980D",
"Q.	c #419F2A",
"R.	c #CB970A",
"S.	c #C2980C",
"T.	c #09A238",
"U.	c #9C9A15",
"V.	c #EC9502",
"W.	c #B4980F",
"X.	c #6B9C20",
"Y.	c #E89503",
"Z.	c #AB9911",
"`.	c #8C9A18",
" +	c #FAB300",
".+	c #F59800",
"++	c #4D9E28",
"@+	c #B29810",
"#+	c #24A031",
"$+	c #29A030",
"%+	c #BF980D",
"&+	c #F6A100",
"*+	c #FCBE00",
"=+	c #FCBC00",
"-+	c #709C1F",
";+	c #769B1E",
">+	c #979A16",
",+	c #7F9B1B",
"'+	c #7B9C1C",
")+	c #3A9F2C",
"!+	c #669D22",
"~+	c #4B9E28",
"{+	c #AB9811",
"]+	c #849B1A",
"^+	c #819B1B",
"/+	c #3C9F2B",
"(+	c #07A138",
"_+	c #F8AE00",
":+	c #C1B90E",
"<+	c #B8B710",
"[+	c #439F2A",
"}+	c #C4980C",
"|+	c #0FA236",
"1+	c #689D21",
"2+	c #E49604",
"3+	c #A39A13",
"4+	c #5D9E24",
"5+	c #19A034",
"6+	c #C8B70C",
"7+	c #E0BD06",
"8+	c #0BA337",
"9+	c #BAB80F",
"0+	c #21A032",
"a+	c #5E9C24",
"b+	c #B19910",
"c+	c #A69913",
"d+	c #7D9B1C",
"e+	c #38A02C",
"f+	c #19A534",
"g+	c #15A535",
"h+	c #E99602",
"i+	c #3F9E2B",
"j+	c #22A132",
"k+	c #D59607",
"l+	c #E69603",
"m+	c #A19A14",
"n+	c #DC9606",
"o+	c #F59B00",
"p+	c #E8BE04",
"q+	c #1DA533",
"r+	c #ECBE04",
"s+	c #889A19",
"t+	c #F49700",
"u+	c #A9B513",
"v+	c #0FA336",
"w+	c #6AAE22",
"x+	c #EDBF03",
"y+	c #FBBB00",
"z+	c #D99706",
"A+	c #C0980C",
"B+	c #EBAF03",
"C+	c #39A02C",
"D+	c #27A031",
"E+	c #399F2C",
"F+	c #F6A200",
"G+	c #D3BB0A",
"H+	c #38A82D",
"I+	c #2AA530",
"J+	c #899B19",
"K+	c #18A534",
"L+	c #36A82D",
"M+	c #2CA72F",
"N+	c #E5BE05",
"O+	c #C1970C",
"P+	c #D4BB09",
"Q+	c #2EA72F",
"R+	c #E6BD05",
"S+	c #729F1F",
"T+	c #F7A300",
"U+	c #DFBC06",
"V+	c #6EAF21",
"W+	c #98B417",
"X+	c #8EAE19",
"Y+	c #20A633",
"Z+	c #F1BF02",
"`+	c #69AE22",
" @	c #4BAB28",
".@	c #C8B90C",
"+@	c #FAB600",
"@@	c #3CA92C",
"#@	c #75AF1F",
"$@	c #63AE23",
"%@	c #BDB80F",
"&@	c #F9B300",
"*@	c #67AE22",
"=@	c #F59600",
"-@	c #F9B000",
";@	c #DABC08",
">@	c #72AF20",
",@	c #D6BB08",
"                                                                                                                                ",
"                                                                                                                                ",
"                                                                                                                                ",
"                                                                                                                                ",
"                                                                                                                                ",
"                                                                                                                                ",
"                                                    . +                                                                         ",
"                                              + + + + + + + +                                                                   ",
"                                            @ + + + + + + + + +                                                                 ",
"                                          + + + + + + + + + + + +                                                               ",
"                                          + + + + + + + + + + + +                                                               ",
"                                        # + + + + + + + + + + + + +                                                             ",
"                                        + + + + + + + + + + + + + +                     $ + % +                                 ",
"                                        + + + + + + & * + + + + + +                 + + + + + + + +                             ",
"                                        + + + + + = - ; > , + + + '               $ + + + + + + + + +                           ",
"                                          + + + + ) ! ; ~ { + + + ] ^ ^ ^ /     + + + + + + + + + + + +                         ",
"                                          + + + + ( _ : < [ + + } | ^ ^ ^ ^ ^ 1 + + + + + + + + + + + + 2                       ",
"                                            } + + 3 4 5 6 + + + 7 ^ ^ ^ ^ ^ ^ 8 + + + + + + + + + + + + @                       ",
"                                          ^ 9 } + + + 0 a b } c ^ ^ ^ ^ ^ ^ ^ d + + + + + + + + + + + + +                       ",
"                                      ^ ^ ^ ^ e f ' + g h i j ^ ^ ^ ^ ^ ^ ^ ^ k + + l m = + + + + + + + +                       ",
"                      + $ @ +       n ^ ^ ^ ^ ^ ^ ^ o o p q ^ ^ ^ ^ ^ ^ ^ ^ ^ r + s t ; u v + + + + + + +                       ",
"                  + + + + + + + + e ^ ^ ^ ^ ^ ^ ^ ^ ^ ^ w x ^ ^ ^ ^ ^ ^ ^ ^ ^ y + + = z ; A + + + + + + +                       ",
"                + + + + + + + + + B C ^ ^ ^ ^ ^ ^ ^ ^ ^ D h E ^ ^ ^ ^ ^ ^ ^ ^ ^ F l G H I J + + + + + +                         ",
"              + + + + + + + + + + + f ^ ^ ^ ^ ^ ^ ^ ^ ^ / K L ^ ^ ^ ^ ^ ^ ^ ^ ^ M N O P Q R + + + + +                           ",
"            + + + + + + + + + + + + + | ^ ^ ^ ^ ^ ^ ^ ^ ^ S T ^ ^ ^ ^ ^ ^ ^ ^ U V W X + + + + + + +                             ",
"            + + + + + + + + l Y ) Z + ` ^ ^ ^ ^ ^ ^ ^ ^ ^  ...+.^ ^ ^ ^ ^ ^ @.#.$.%.&.*.=.-.' ;.r                               ",
"            + + + + + + + >.,.'.).!.+ ] ^ ^ ^ ^ ^ ^ ^ ^ ^ ~.{.].^./ ^ ^ ^ /.(.p _.^ ^ ^ ^ ^ ^ ^ ^                               ",
"            + + + + + + + :.; <.[.:.}.r ^ ^ ^ ^ ^ ^ ^ ^ |./ 1.2.3.4.5.^ 6.7.8.9.^ ^ ^ ^ ^ ^ ^ ^ ^ ^                             ",
"            + + + + + + + 0.a.b.c.d.; e.f.g.h.^ ^ ^ ^ i.j.k.l.m.{.n.o.p.q.r.s.^ ^ ^ ^ ^ ^ ^ ^ ^ ^ ^                             ",
"            + + + + + + + + t.u.s + v.w.k.x.y.z. .A.^ B.C.D.; ; C.E.F.G.H.I.^ ^ ^ ^ ^ ^ ^ ^ ^ ^ ^ ^                             ",
"              + + + + + + + + + + + J.^ ^ _.K.L.G.F.8.M.N.O.P.Q.R.S.; T.L.U.^ ^ ^ ^ ^ ^ ^ ^ ^ ^ ^ &.7 . + $                     ",
"                + + + + + + + + + ;.C ^ ^ ^ ^ ^ V.W.X.N.; G.E ^ ^ Y.Z.`.8.`.+.^ ^ ^ ^ ^ ^ ^ ^ ^ 1 ;.+ + + + + +                 ",
"                  + + + + + + +  +.+^ ^ ^ ^ ^ ^ ^ ^ 4.++h S ^.^ ^ ^ @+#+$+%+^ ^ ^ ^ ^ ^ ^ ^ ^ &+*++ + + + + + + + +             ",
"                      % $ =+f y ^ ^ ^ ^ ^ ^ ^ ^ ^ ^ P.-+;+>+ .^ ^ ^ ,+; ; #+X.W.s.^ ^ ^ ^ ^ o ' + + + + + + + + + +             ",
"                            ^ ^ ^ ^ ^ ^ ^ ^ ^ ^ ^ ^ / '+)+; ; h.!+~+{+y.]+^+/+(+q.T K.^.^ ^ _+:+<++ + + + + + + + + +           ",
"                            ^ ^ ^ ^ ^ ^ ^ ^ ^ ^ ^ ^ ^ 9.[+q.; }+x.; |+D.1+^ ^ 2+3+4+5+h p '+6+7+8+9++ + + + + + + + +           ",
"                            ^ ^ ^ ^ ^ ^ ^ ^ ^ ^ ^ ^ 9.Q.0+p.G.a+~+u b+c+^ ^ ^ ^ ^ ^ I.D d+e+x.f+g+~ + + + + + + + + + $         ",
"                            &.^ ^ ^ ^ ^ ^ ^ ^ ^ ^ h+i+j+k+l+].m+n+V -+^ ^ ^ ^ ^ ^ ^ ^ ^ ^ o+p+b.; q+r++ + + + + + + + $         ",
"                              ^ ^ .+| &.^ ^ ^ ^ h+1.0+/.^ ^ ^ ^ ^ s+m./ ^ ^ ^ ^ ^ ^ ^ ^ ^ t+u+v+w+x++ + + + + + + + +           ",
"                              J.y++ + } =.&+^ h+i+j+k+^ ^ ^ ^ ^ ^ z+u A+^ ^ ^ ^ ^ ^ ^ ^ ^ ^ =.= + + + + + + + + + + +           ",
"                            + + + + + + + + B+C+D+%.^ ^ ^ ^ ^ ^ ^ ^ E+-+^ ^ ^ ^ ^ ^ ^ ^ ^ ^ F++ + + + + + + + + + + +           ",
"                          + + + + + + G+$ x+H+I+n+^ ^ ^ ^ ^ ^ ^ ^ ^ J+m./ ^ ^ ^ ^ ^ ^ ^ ^ ^ ^  ++ + + + + + + + + +             ",
"                        + + + + + + m K+p+L+M+N+&+^ ^ ^ ^ ^ ^ ^ ^ ^ z+h O+^ ^ ^ ^ ^ ^ ^ ^ ^ ^   } + + + + + + + +               ",
"                        + + + + + + P+; A Q+R++ =.^ ^ ^ ^ ^ ^ ^ ^ ^ ^ E+S+F+T+1 ^ ^ ^ ^ ^ ^         + + + + $                   ",
"                        + + + + + + U+; u V+W+$ } &.^ ^ ^ ^ ^ ^ ^ ^ F+X+Y+$ + + -.c &.^ ^                                       ",
"                      + + + + + + + Z+`+{  @}.+ + | ^ ^ ^ ^ ^ ^ ^ 8 + 7+<..@0.+ + + +@.+                                        ",
"                      $ + + + + + + + + + + + + + .+^ ^ ^ ^ ^ ^ ` + + + @@#@( }.+ + + *+                                        ",
"                        + + + + + + + + + + + + y+^ ^ ^ ^ ^ ^ .+' + p+$@w+'.8+%@+ + + +                                         ",
"                        + + + + + + + + + + + + &@^ ^ ^ ^ ^ ^ ` + + + *@<.; > + + + + + +                                       ",
"                          + + + + + + + + + + +         ^ =@^ -@+ + + + ;@>@,@+ + + + + +                                       ",
"                          + + + + + + + + + +                 + + + + + + + + + + + + + +                                       ",
"                              + + + + + + +                   + + + + + + + + + + + + + +                                       ",
"                                  # +                           + + + + + + + + + + + + +                                       ",
"                                                                + + + + + + + + + + + +                                         ",
"                                                                  + + + + + + + + + + %                                         ",
"                                                                  $ + + + + + + + + +                                           ",
"                                                                      @ + + + + +                                               ",
"                                                                                                                                ",
"                                                                                                                                ",
"                                                                                                                                ",
"                                                                                                                                ",
"                                                                                                                                ",
"                                                                                                                                ",
"                                                                                                                                "};
