/* XPM */
static char * modshell_xpm[] = {
"48 48 193 2",
"  	c None",
". 	c #FCC000",
"+ 	c #FCC100",
"@ 	c #CBBA0B",
"# 	c #DBBC07",
"$ 	c #F8C001",
"% 	c #2CA72F",
"& 	c #0AA337",
"* 	c #86B21B",
"= 	c #FBBC00",
"- 	c #FBC000",
"; 	c #FDC000",
"> 	c #B9B80F",
", 	c #40A92B",
"' 	c #30A72E",
") 	c #94B318",
"! 	c #F8AB00",
"~ 	c #F49500",
"{ 	c #F49600",
"] 	c #FABB00",
"^ 	c #FBC100",
"/ 	c #FBBE00",
"( 	c #EBBE04",
"_ 	c #DEBC07",
": 	c #25A631",
"< 	c #E6BD05",
"[ 	c #FAB900",
"} 	c #F59700",
"| 	c #F69C00",
"1 	c #FBB700",
"2 	c #6AAE22",
"3 	c #A1B515",
"4 	c #FAB400",
"5 	c #F59900",
"6 	c #E08B00",
"7 	c #C49500",
"8 	c #BF9100",
"9 	c #BF9000",
"0 	c #FBBF00",
"a 	c #F59E00",
"b 	c #F8A700",
"c 	c #AFA511",
"d 	c #57A025",
"e 	c #C17500",
"f 	c #1B0C00",
"g 	c #000000",
"h 	c #FBB800",
"i 	c #EB9602",
"j 	c #1CA033",
"k 	c #F09601",
"l 	c #EE9100",
"m 	c #2F1900",
"n 	c #F7A700",
"o 	c #489F29",
"p 	c #BC980D",
"q 	c #DA8500",
"r 	c #0A1714",
"s 	c #022526",
"t 	c #FBBD00",
"u 	c #8F9A18",
"v 	c #779B1E",
"w 	c #D78300",
"x 	c #FFFFFF",
"y 	c #E3BD06",
"z 	c #76B01F",
"A 	c #B8B710",
"B 	c #F6A200",
"C 	c #D49707",
"D 	c #30A02E",
"E 	c #DCBC07",
"F 	c #0EA337",
"G 	c #28A631",
"H 	c #C2B90D",
"I 	c #FABF00",
"J 	c #2BA02F",
"K 	c #D09708",
"L 	c #E59604",
"M 	c #44A92A",
"N 	c #57AC26",
"O 	c #43AA2A",
"P 	c #1FA533",
"Q 	c #63A222",
"R 	c #AC9911",
"S 	c #F19501",
"T 	c #839B1B",
"U 	c #4E9E27",
"V 	c #2EA02F",
"W 	c #729C1E",
"X 	c #579D25",
"Y 	c #6C8817",
"Z 	c #D5BC09",
"` 	c #98B417",
" .	c #EABB04",
"..	c #9F9B14",
"+.	c #549D26",
"@.	c #1AA134",
"#.	c #4F9E27",
"$.	c #989A16",
"%.	c #E09605",
"&.	c #759C1E",
"*.	c #6E9C20",
"=.	c #21A032",
"-.	c #13A135",
";.	c #C3970B",
">.	c #0BA237",
",.	c #308B25",
"'.	c #000408",
").	c #EE9501",
"!.	c #B19910",
"~.	c #669C22",
"{.	c #29A030",
"].	c #18A134",
"^.	c #E39604",
"/.	c #C5980B",
"(.	c #E39504",
"_.	c #011623",
":.	c #FCBF00",
"<.	c #FCBE00",
"[.	c #F8A800",
"}.	c #C2980C",
"|.	c #3B9F2C",
"1.	c #D79607",
"2.	c #A79912",
"3.	c #F9A900",
"4.	c #F59A00",
"5.	c #DC9606",
"6.	c #649D22",
"7.	c #5E9D24",
"8.	c #7D9B1C",
"9.	c #CD9709",
"0.	c #7E9C1C",
"a.	c #14A235",
"b.	c #2AA030",
"c.	c #919A17",
"d.	c #04A239",
"e.	c #409E2B",
"f.	c #F39500",
"g.	c #DA9606",
"h.	c #9A9915",
"i.	c #399F2C",
"j.	c #359F2D",
"k.	c #2CA02F",
"l.	c #558638",
"m.	c #1292D0",
"n.	c #D89606",
"o.	c #28A030",
"p.	c #9D9915",
"q.	c #CC9709",
"r.	c #869B1A",
"s.	c #739B25",
"t.	c #1091D0",
"u.	c #F8A500",
"v.	c #F9B000",
"w.	c #FAB500",
"x.	c #F6A100",
"y.	c #27A031",
"z.	c #1191D0",
"A.	c #DDB107",
"B.	c #9E9A14",
"C.	c #9DB516",
"D.	c #AAAB12",
"E.	c #D9BC08",
"F.	c #2CA730",
"G.	c #27A631",
"H.	c #AFB712",
"I.	c #F69B00",
"J.	c #228F2B",
"K.	c #E4BD05",
"L.	c #03A239",
"M.	c #8FB319",
"N.	c #36A42C",
"O.	c #262100",
"P.	c #F9C001",
"Q.	c #BAB80F",
"R.	c #E7BD05",
"S.	c #F8AA00",
"T.	c #FAB300",
"U.	c #8CB219",
"V.	c #618C15",
"W.	c #121100",
"X.	c #F7A400",
"Y.	c #F7A600",
"Z.	c #D1BB0A",
"`.	c #23A632",
" +	c #26982B",
".+	c #C19300",
"++	c #B48800",
"@+	c #997400",
"#+	c #FBB600",
"$+	c #F2BE02",
"%+	c #5EAD24",
"&+	c #09A338",
"*+	c #99B417",
"                                                                                                ",
"                                                                                                ",
"                                                                                                ",
"                                                                                                ",
"                                                                                                ",
"                                . .                                                             ",
"                            . . . . . .                                                         ",
"                          . . . . . . . .                                                       ",
"                        . . . . . . . . . +                                                     ",
"                        . . . . . . . . . .                                                     ",
"                        . . . . @ # . . . .             . . . . . .                             ",
"                        . . . $ % & * . . =           - . . . . . . ;                           ",
"                        . . . > , ' ) - . ! ~ ~ ~ { ] . . . . . . . . ^                         ",
"                          / . ( _ : < . [ } ~ ~ ~ ~ = . . . . . . . . .                         ",
"                        ~ | 1 . . 2 3 4 5 ~ ~ ~ ~ 6 7 8 8 8 8 8 8 8 8 9                         ",
"            0         ~ ~ ~ ~ a b c d ~ ~ ~ ~ ~ e f g g g g g g g g g g g g g g g g g g g       ",
"      . . . . . . h ~ ~ ~ ~ ~ ~ ~ i j k ~ ~ ~ l m g g g g g g g g g g g g g g g g g g g g g     ",
"    . . . . . . . . n ~ ~ ~ ~ ~ ~ ~ o p ~ ~ ~ q g g r g s g g g g g g g g g g g g g g g g g     ",
"    . . . . . . . . t } ~ ~ ~ ~ ~ ~ u v ~ ~ ~ w g g g x x g g g g g g g g g g g g g g g g g     ",
"  + . . . . . y z A . B ~ ~ ~ ~ ~ ~ C D ~ ~ ~ w g g g g x x g g g g g g g g g g g g g g g g     ",
"  + . . . . E F G H I n ~ ~ ~ ~ ~ ~ ~ J K p L w g g g g g x x g g g g g g g g g g g g g g g     ",
"  + . . . . . M N O P Q R i ~ ~ ~ S T U V W X Y g g g g g g x x g g g g g g g g g g g g g g     ",
"    . . . . . Z ` .  ...+.@.#.$.%.&.*.=.-.;.>.,.g g g '.g x x g g g g g g g g g g g g g g g     ",
"    . . . . . . . . n ~ ~ ).!.~.=.{.].^./.(.U ,.g g _.g x x _.g g g g g g g g g g g g g g g     ",
"      :.. . . . <.[.~ ~ ~ ~ ~ ~ }.{.|.1.~ ~ 2.,.g g g x x g g x x x x x g g g g g g g g g g     ",
"            - 3.4.~ ~ ~ ~ ~ ~ ~ 5.6.7.8.k 9.0.,.g g g g g g g g g g g g g g g g g g g g g g     ",
"              ~ ~ ~ ~ ~ ~ ~ ~ ~ S R a.b.c.d.e.,.g g g g g g g g g g g g g g g g g g g g g g     ",
"              f.~ ~ ~ ~ ~ ~ ~ ~ g.b.h.i.j.k.$.l.g g g g g g g g g g g g g g g g g g g g g g   m.",
"                ~ ~ ~ ~ ~ ~ ~ n.o.p.~ 5.q.r.s.l.g g g g g g g g g g g g g g g g g g g g g g   t.",
"                u.v.w.v.x.~ n.y.p.~ ~ ~ ~ n.~ l.g g g g g g g g g g g g g g g g g g g g g g   z.",
"              . . . . . . A.y.B.~ ~ ~ ~ ~ ~ n.l.g g g g g g g g g g g g g g g g g g g g g g     ",
"            . . . . $ C.# G D.~ ~ ~ ~ ~ ~ ~ n.l.g g g g g g g g g g g g g g g g g g g g g g     ",
"            . . . . E.F.G.H.. I.~ ~ ~ ~ ~ ~ n.J.g g g g g g g g g g g g g g g g g g g g g g     ",
"          ^ . . . . K.L.% M.. b ~ ~ ~ ~ ~ { ! N.O.g g g g g g g g g g g g g g g g g g g g g     ",
"          . . . . . P.@ Q.R.. S.~ ~ ~ ~ ~ T.. U.V.W.g g g g g g g g g g g g g g g g g g g       ",
"            . . . . . . . . . X.~ ~ ~ ~ Y.. Z.M.`. +.+++++@+g g g g g g g g g g g g g           ",
"            . . . . . . . . +   ~ ~ ~ ~ #+. $+%+&+*+. . . .                                     ",
"              . . . . . . .             . . . . K.P.. . . .                                     ",
"                . . . . .               . . . . . . . . . .                                     ",
"                                        . . . . . . . . . -                                     ",
"                                          . . . . . . . .                                       ",
"                                            . . . . . . 0                                       ",
"                                              :.; - .                                           ",
"                                                                                                ",
"                                                                                                ",
"                                                                                                ",
"                                                                                                ",
"                                                                                                "};
