/* XPM */
static char * tcp_xpm[] = {
"48 48 114 2",
"  	c None",
". 	c #00AAD4",
"+ 	c #11ABD4",
"@ 	c #12ABD4",
"# 	c #16ABD4",
"$ 	c #1CABD5",
"% 	c #40B0D6",
"& 	c #42B0D7",
"* 	c #22ACD5",
"= 	c #E6F0F7",
"- 	c #F0F6FA",
"; 	c #A7D0E6",
"> 	c #6EBBDB",
", 	c #CBE2EF",
"' 	c #F1F7FA",
") 	c #FDFEFE",
"! 	c #FEFEFF",
"~ 	c #F5F9FC",
"{ 	c #D9E9F3",
"] 	c #8AC4E0",
"^ 	c #DEECF4",
"/ 	c #EEF5F9",
"( 	c #90C7E1",
"_ 	c #5DB6D9",
": 	c #FFFFFF",
"< 	c #AFD4E8",
"[ 	c #FBFDFE",
"} 	c #F7FAFC",
"| 	c #F4F9FB",
"1 	c #B5D7E9",
"2 	c #9BCBE3",
"3 	c #49B1D7",
"4 	c #91C7E1",
"5 	c #DCEBF4",
"6 	c #BBD9EB",
"7 	c #35AED6",
"8 	c #ACD3E7",
"9 	c #2EADD5",
"0 	c #0DAAD4",
"a 	c #58B5D9",
"b 	c #B7D8EA",
"c 	c #80C1DE",
"d 	c #D8E9F3",
"e 	c #51B3D8",
"f 	c #5CB6D9",
"g 	c #C5DFED",
"h 	c #E0EDF5",
"i 	c #10ABD4",
"j 	c #E3EFF6",
"k 	c #66B8DA",
"l 	c #63B8DA",
"m 	c #FAFCFD",
"n 	c #68B9DB",
"o 	c #B9D9EA",
"p 	c #76BDDD",
"q 	c #E6F1F7",
"r 	c #F8FBFD",
"s 	c #F6F9FC",
"t 	c #C2DDEC",
"u 	c #BAD9EA",
"v 	c #CDE3EF",
"w 	c #95C9E2",
"x 	c #B2D5E8",
"y 	c #CAE1EF",
"z 	c #70BBDC",
"A 	c #DFEDF5",
"B 	c #EAF3F8",
"C 	c #77BEDD",
"D 	c #E8F2F7",
"E 	c #D4E7F1",
"F 	c #DAEAF3",
"G 	c #69B9DB",
"H 	c #A0CDE4",
"I 	c #C2DDED",
"J 	c #4FB3D8",
"K 	c #3BAFD6",
"L 	c #ECF4F9",
"M 	c #84C2DF",
"N 	c #C4DEED",
"O 	c #9FCDE4",
"P 	c #72BCDC",
"Q 	c #7ABFDD",
"R 	c #E4EFF6",
"S 	c #A3CFE5",
"T 	c #79BEDD",
"U 	c #6DBADB",
"V 	c #DEECF5",
"W 	c #85C3DF",
"X 	c #65B8DA",
"Y 	c #A8D1E6",
"Z 	c #26ACD5",
"` 	c #F6FAFC",
" .	c #2AADD5",
"..	c #8BC5E0",
"+.	c #E2EEF5",
"@.	c #BDDAEB",
"#.	c #E8F1F7",
"$.	c #56B4D9",
"%.	c #94C8E2",
"&.	c #E2EEF6",
"*.	c #9ECCE4",
"=.	c #5FB6D9",
"-.	c #14ABD4",
";.	c #4DB2D8",
">.	c #97C9E2",
",.	c #B4D6E9",
"'.	c #8DC5E1",
").	c #15ABD4",
"!.	c #1FABD5",
"~.	c #06AAD4",
"{.	c #0FAAD4",
"].	c #19ABD4",
"^.	c #21ACD5",
"/.	c #0EAAD4",
"                                                                                                ",
"                                                                                                ",
"                                                                                                ",
"                                                                                                ",
"                                                                                                ",
"                                                                                                ",
"                                                                                                ",
"                                                                                                ",
"                                                                                                ",
"                                                                                                ",
"                                                                                                ",
"                                                  . . . . . . .                                 ",
"                            + . . . . . . + . . . . . . . . . . . .                             ",
"                        . . . . . . . . . . . . . . . . . . . . . . @                           ",
"          . . . .     . . . . . . . . . . . . . . . . . . . . . . . . #                         ",
"        . . . . . . . . . . . . . . . . . . . . . . . . . . . . . . . . . . . .                 ",
"      . . . . . . . . . . . . . . . . . . . . . . . . . . . . . . . . . . . . . .               ",
"      . . . . . . . . . . . . . . . . . . . . $ % & * . . . . . . . . . . . . . . .             ",
"      . . . . $ = - - - - - - - - - ; . . > , ' ) ! ~ { ] . . ^ - - - - / { ( . . .             ",
"      . . . . _ ! : : : : : : : : : ] . < [ : : } | ) : 1 . & [ : : : : : : ! 2 . .             ",
"      . . . . 3 4 4 4 5 : : 6 4 4 4 7 8 : : - 4 9 0 a b c . c : : d e f g : : h . .             ",
"      i . . . . . . . j : : k . . . l m : } n . . . . . . . 8 : : o . . p : : q . . . . .       ",
"    . . . . . . . . 9 r : s * . . . t : : u . . . . . . . . v : : w . . x : : y . . . . . .     ",
"  $ . . . . . . . . z : : A . . . . B : : C . . . . . . . . D : : E y F ) : r G . . . . . . .   ",
"  . . . . . . . . . H : : I . . . # r : : J . . . . . . . K m : : : : : : L M . . . . . . . . . ",
". . . . . . . . . . N : : O . . . # } : : P . . . . . . . Q : : R S S 2 T $ . . . . . . . . . . ",
". . . . . . . . . . h : : U . . . . V : : v # . . 0 W X . Y : : 6 . . . . . . . . . . . . . . . ",
". . . . . . . . . Z ` : }  .. . . . ..) : : +.@.N #.) $.. y : : %.. . . . . . . . . . . . . . # ",
". . . . . . . . . n : : &.. . . . . . *.s : : : : : = . . = : ! =.. . . . . . . . . . . . . . . ",
"-.. . . . . . . . ;.4 4 p . . . . . . . % >.,.,.O U $ . 0 ] 4 '.$ . . . . . . . . . . . . . .   ",
". . . . . . . . . . . . . . . . . . . . . . . . . . . . . . . . . . . . . . . . . . . . . . .   ",
"  ).. . . . . . . . . . . . . . . . . . . . . . . . . . . . . . . . . . . . . . . . . . . .     ",
"    . . . . . . . . . . . . . . . . . . . . . . . . . . . . . . . . . . . . . . . . . . .       ",
"      . . . . . . . . . . . . . . . . . . . . . . . . . . . . . . . . . . . . . . .             ",
"        !.. . . . . . . . . . . . ~.{.. . . . . . . . . . . . . . . . . . . . . .               ",
"                    . . . . . . . ].    . . . . . ^.      . . . . . . .   . . .                 ",
"                      . . . /..                               . . .                             ",
"                                                                                                ",
"                                                                                                ",
"                                                                                                ",
"                                                                                                ",
"                                                                                                ",
"                                                                                                ",
"                                                                                                ",
"                                                                                                ",
"                                                                                                ",
"                                                                                                ",
"                                                                                                "};
